# xmcd CD database file
#
# Track frame offsets:
#	150
#	18767
#	29933
#	40035
#	50847
#	61744
#	74967
#	88352
#	101838
#	111105
#	126105
#	134908
#	148103
#
# Disc length: 2124 seconds
#
# Revision: 0
# Processed by: cddbd v1.5.2PL0 Copyright (c) Steve Scherf et al.
# Submitted via: CDex 2.02
#
DISCID=d2084a0d
DTITLE=Parrish Ellis - Rural American Songs from the Piedmont, Delta and Crescent City Vol. 1
DYEAR=1900
DGENRE=Blues
TTITLE0=Trouble In Mind
TTITLE1=Railroadin' and Gamblin'
TTITLE2=Payday
TTITLE3=Buckdance Rag
TTITLE4=The Girl I Left Behind Me
TTITLE5=Rollin' and Tumblin'
TTITLE6=Country Boy Down in New Orleans
TTITLE7=I'm Goin' Away
TTITLE8=Greasy Greens
TTITLE9=Give Me That Good Old Boxcar
TTITLE10=Shortnin' Bread
TTITLE11=Elk River Blues
TTITLE12=I Belong to the Band
EXTD=
EXTT0=
EXTT1=
EXTT2=
EXTT3=
EXTT4=
EXTT5=
EXTT6=
EXTT7=
EXTT8=
EXTT9=
EXTT10=
EXTT11=
EXTT12=
PLAYORDER=
